# 3ds Max Wavefront OBJ Exporter v0.97b - (c)2007 guruware
# File Created: 12.04.2017 20:33:55

#
# object Cylinder001
#

v  9.3014 0.0000 -15.5998
v  20.2642 0.0000 -15.5998
v  19.7276 0.0000 -18.9874
v  18.1705 0.0000 -22.0435
v  15.7452 0.0000 -24.4688
v  12.6891 0.0000 -26.0260
v  9.3014 0.0000 -26.5625
v  5.9138 0.0000 -26.0260
v  2.8577 0.0000 -24.4688
v  0.4324 0.0000 -22.0435
v  -1.1247 0.0000 -18.9874
v  -1.6613 0.0000 -15.5998
v  -1.1247 0.0000 -12.2121
v  0.4324 0.0000 -9.1560
v  2.8577 0.0000 -6.7307
v  5.9138 0.0000 -5.1736
v  9.3015 0.0000 -4.6370
v  12.6891 0.0000 -5.1736
v  15.7452 0.0000 -6.7307
v  18.1705 0.0000 -9.1561
v  19.7276 0.0000 -12.2121
v  20.2642 5.0000 -15.5998
v  19.7276 5.0000 -18.9874
v  18.1705 5.0000 -22.0435
v  15.7452 5.0000 -24.4688
v  12.6891 5.0000 -26.0260
v  9.3014 5.0000 -26.5625
v  5.9138 5.0000 -26.0260
v  2.8577 5.0000 -24.4688
v  0.4324 5.0000 -22.0435
v  -1.1247 5.0000 -18.9874
v  -1.6613 5.0000 -15.5998
v  -1.1247 5.0000 -12.2121
v  0.4324 5.0000 -9.1560
v  2.8577 5.0000 -6.7307
v  5.9138 5.0000 -5.1736
v  9.3015 5.0000 -4.6370
v  12.6891 5.0000 -5.1736
v  15.7452 5.0000 -6.7307
v  18.1705 5.0000 -9.1561
v  19.7276 5.0000 -12.2121
v  20.2642 10.0000 -15.5998
v  19.7276 10.0000 -18.9874
v  18.1705 10.0000 -22.0435
v  15.7452 10.0000 -24.4688
v  12.6891 10.0000 -26.0260
v  9.3014 10.0000 -26.5625
v  5.9138 10.0000 -26.0260
v  2.8577 10.0000 -24.4688
v  0.4324 10.0000 -22.0435
v  -1.1247 10.0000 -18.9874
v  -1.6613 10.0000 -15.5998
v  -1.1247 10.0000 -12.2121
v  0.4324 10.0000 -9.1560
v  2.8577 10.0000 -6.7307
v  5.9138 10.0000 -5.1736
v  9.3015 10.0000 -4.6370
v  12.6891 10.0000 -5.1736
v  15.7452 10.0000 -6.7307
v  18.1705 10.0000 -9.1561
v  19.7276 10.0000 -12.2121
v  13.7360 10.0000 -12.3779
v  14.5145 10.0000 -13.9059
v  8.7937 10.0000 -15.8585
# 64 vertices

vn 0.0000 -1.0000 -0.0000
vn 0.0000 -1.0000 -0.0000
vn 0.0000 -1.0000 -0.0000
vn 0.0000 -1.0000 -0.0000
vn 0.0000 -1.0000 -0.0000
vn 0.0000 -1.0000 -0.0000
vn 0.0000 -1.0000 -0.0000
vn 0.0000 -1.0000 -0.0000
vn 0.0000 -1.0000 -0.0000
vn 0.0000 -1.0000 -0.0000
vn 0.0000 -1.0000 -0.0000
vn 0.0000 -1.0000 -0.0000
vn 0.0000 -1.0000 -0.0000
vn 0.0000 -1.0000 -0.0000
vn 0.0000 -1.0000 -0.0000
vn 0.0000 -1.0000 -0.0000
vn 0.0000 -1.0000 -0.0000
vn 0.0000 -1.0000 -0.0000
vn 0.0000 -1.0000 -0.0000
vn 0.0000 -1.0000 -0.0000
vn 0.0000 -1.0000 -0.0000
vn 0.0000 -1.0000 -0.0000
vn 0.0000 -1.0000 -0.0000
vn 0.0000 -1.0000 -0.0000
vn 0.0000 -1.0000 -0.0000
vn 0.0000 -1.0000 -0.0000
vn 0.0000 -1.0000 -0.0000
vn 0.0000 -1.0000 -0.0000
vn 0.0000 -1.0000 -0.0000
vn 0.0000 -1.0000 -0.0000
vn 0.0000 -1.0000 -0.0000
vn 0.0000 -1.0000 -0.0000
vn 0.0000 -1.0000 -0.0000
vn 0.0000 -1.0000 -0.0000
vn 0.0000 -1.0000 -0.0000
vn 0.0000 -1.0000 -0.0000
vn 0.0000 -1.0000 -0.0000
vn 0.0000 -1.0000 -0.0000
vn 0.0000 -1.0000 -0.0000
vn 0.0000 -1.0000 -0.0000
vn 0.0000 -1.0000 -0.0000
vn 0.0000 -1.0000 -0.0000
vn 0.0000 -1.0000 -0.0000
vn 0.0000 -1.0000 -0.0000
vn 0.0000 -1.0000 -0.0000
vn 0.0000 -1.0000 -0.0000
vn 0.0000 -1.0000 -0.0000
vn 0.0000 -1.0000 -0.0000
vn 0.0000 -1.0000 -0.0000
vn 0.0000 -1.0000 -0.0000
vn 0.0000 -1.0000 -0.0000
vn 0.0000 -1.0000 -0.0000
vn 0.0000 -1.0000 -0.0000
vn 0.0000 -1.0000 -0.0000
vn 0.0000 -1.0000 -0.0000
vn 0.0000 -1.0000 -0.0000
vn 0.0000 -1.0000 -0.0000
vn 0.0000 -1.0000 -0.0000
vn 0.0000 -1.0000 -0.0000
vn 0.0000 -1.0000 -0.0000
vn 1.0000 0.0000 -0.0000
vn 0.9511 0.0000 -0.3090
vn 0.9511 0.0000 -0.3090
vn 0.9511 0.0000 -0.3090
vn 1.0000 0.0000 -0.0000
vn 1.0000 0.0000 -0.0000
vn 0.9511 0.0000 -0.3090
vn 0.8090 0.0000 -0.5878
vn 0.8090 0.0000 -0.5878
vn 0.8090 0.0000 -0.5878
vn 0.9511 0.0000 -0.3090
vn 0.9511 0.0000 -0.3090
vn 0.8090 0.0000 -0.5878
vn 0.5878 0.0000 -0.8090
vn 0.5878 0.0000 -0.8090
vn 0.5878 0.0000 -0.8090
vn 0.8090 0.0000 -0.5878
vn 0.8090 0.0000 -0.5878
vn 0.5878 0.0000 -0.8090
vn 0.3090 0.0000 -0.9511
vn 0.3090 0.0000 -0.9511
vn 0.3090 0.0000 -0.9511
vn 0.5878 0.0000 -0.8090
vn 0.5878 0.0000 -0.8090
vn 0.3090 0.0000 -0.9511
vn -0.0000 0.0000 -1.0000
vn -0.0000 0.0000 -1.0000
vn -0.0000 0.0000 -1.0000
vn 0.3090 0.0000 -0.9511
vn 0.3090 0.0000 -0.9511
vn -0.0000 0.0000 -1.0000
vn -0.3090 0.0000 -0.9511
vn -0.3090 0.0000 -0.9511
vn -0.3090 0.0000 -0.9511
vn -0.0000 0.0000 -1.0000
vn -0.0000 0.0000 -1.0000
vn -0.3090 0.0000 -0.9511
vn -0.5878 0.0000 -0.8090
vn -0.5878 0.0000 -0.8090
vn -0.5878 0.0000 -0.8090
vn -0.3090 0.0000 -0.9511
vn -0.3090 0.0000 -0.9511
vn -0.5878 0.0000 -0.8090
vn -0.8090 0.0000 -0.5878
vn -0.8090 0.0000 -0.5878
vn -0.8090 0.0000 -0.5878
vn -0.5878 0.0000 -0.8090
vn -0.5878 0.0000 -0.8090
vn -0.8090 0.0000 -0.5878
vn -0.9511 0.0000 -0.3090
vn -0.9511 0.0000 -0.3090
vn -0.9511 0.0000 -0.3090
vn -0.8090 0.0000 -0.5878
vn -0.8090 0.0000 -0.5878
vn -0.9511 0.0000 -0.3090
vn -1.0000 0.0000 0.0000
vn -1.0000 0.0000 0.0000
vn -1.0000 0.0000 0.0000
vn -0.9511 0.0000 -0.3090
vn -0.9511 0.0000 -0.3090
vn -1.0000 0.0000 0.0000
vn -0.9511 0.0000 0.3090
vn -0.9511 0.0000 0.3090
vn -0.9511 0.0000 0.3090
vn -1.0000 0.0000 0.0000
vn -1.0000 0.0000 0.0000
vn -0.9511 0.0000 0.3090
vn -0.8090 0.0000 0.5878
vn -0.8090 0.0000 0.5878
vn -0.8090 0.0000 0.5878
vn -0.9511 0.0000 0.3090
vn -0.9511 0.0000 0.3090
vn -0.8090 0.0000 0.5878
vn -0.5878 0.0000 0.8090
vn -0.5878 0.0000 0.8090
vn -0.5878 0.0000 0.8090
vn -0.8090 0.0000 0.5878
vn -0.8090 0.0000 0.5878
vn -0.5878 0.0000 0.8090
vn -0.3090 0.0000 0.9511
vn -0.3090 0.0000 0.9511
vn -0.3090 0.0000 0.9511
vn -0.5878 0.0000 0.8090
vn -0.5878 0.0000 0.8090
vn -0.3090 0.0000 0.9511
vn 0.0000 0.0000 1.0000
vn 0.0000 0.0000 1.0000
vn 0.0000 0.0000 1.0000
vn -0.3090 0.0000 0.9511
vn -0.3090 0.0000 0.9511
vn 0.0000 0.0000 1.0000
vn 0.3090 0.0000 0.9511
vn 0.3090 0.0000 0.9511
vn 0.3090 0.0000 0.9511
vn 0.0000 0.0000 1.0000
vn 0.0000 0.0000 1.0000
vn 0.3090 0.0000 0.9511
vn 0.5878 0.0000 0.8090
vn 0.5878 0.0000 0.8090
vn 0.5878 0.0000 0.8090
vn 0.3090 0.0000 0.9511
vn 0.3090 0.0000 0.9511
vn 0.5878 0.0000 0.8090
vn 0.8090 0.0000 0.5878
vn 0.8090 0.0000 0.5878
vn 0.8090 0.0000 0.5878
vn 0.5878 0.0000 0.8090
vn 0.5878 0.0000 0.8090
vn 0.8090 0.0000 0.5878
vn 0.9511 0.0000 0.3090
vn 0.9511 0.0000 0.3090
vn 0.9511 0.0000 0.3090
vn 0.8090 0.0000 0.5878
vn 0.8090 0.0000 0.5878
vn 0.9511 0.0000 0.3090
vn 1.0000 0.0000 -0.0000
vn 1.0000 0.0000 -0.0000
vn 1.0000 0.0000 -0.0000
vn 0.9511 0.0000 0.3090
vn 0.9511 0.0000 0.3090
vn 1.0000 0.0000 -0.0000
vn 0.9511 0.0000 -0.3090
vn 0.9511 0.0000 -0.3090
vn 0.9511 0.0000 -0.3090
vn 1.0000 0.0000 -0.0000
vn 1.0000 0.0000 -0.0000
vn 0.9511 0.0000 -0.3090
vn 0.8090 0.0000 -0.5878
vn 0.8090 0.0000 -0.5878
vn 0.8090 0.0000 -0.5878
vn 0.9511 0.0000 -0.3090
vn 0.9511 0.0000 -0.3090
vn 0.8090 0.0000 -0.5878
vn 0.5878 0.0000 -0.8090
vn 0.5878 0.0000 -0.8090
vn 0.5878 0.0000 -0.8090
vn 0.8090 0.0000 -0.5878
vn 0.8090 0.0000 -0.5878
vn 0.5878 0.0000 -0.8090
vn 0.3090 0.0000 -0.9511
vn 0.3090 0.0000 -0.9511
vn 0.3090 0.0000 -0.9511
vn 0.5878 0.0000 -0.8090
vn 0.5878 0.0000 -0.8090
vn 0.3090 0.0000 -0.9511
vn -0.0000 0.0000 -1.0000
vn -0.0000 0.0000 -1.0000
vn -0.0000 0.0000 -1.0000
vn 0.3090 0.0000 -0.9511
vn 0.3090 0.0000 -0.9511
vn -0.0000 0.0000 -1.0000
vn -0.3090 0.0000 -0.9511
vn -0.3090 0.0000 -0.9511
vn -0.3090 0.0000 -0.9511
vn -0.0000 0.0000 -1.0000
vn -0.0000 0.0000 -1.0000
vn -0.3090 0.0000 -0.9511
vn -0.5878 0.0000 -0.8090
vn -0.5878 0.0000 -0.8090
vn -0.5878 0.0000 -0.8090
vn -0.3090 0.0000 -0.9511
vn -0.3090 0.0000 -0.9511
vn -0.5878 0.0000 -0.8090
vn -0.8090 0.0000 -0.5878
vn -0.8090 0.0000 -0.5878
vn -0.8090 0.0000 -0.5878
vn -0.5878 0.0000 -0.8090
vn -0.5878 0.0000 -0.8090
vn -0.8090 0.0000 -0.5878
vn -0.9511 0.0000 -0.3090
vn -0.9511 0.0000 -0.3090
vn -0.9511 0.0000 -0.3090
vn -0.8090 0.0000 -0.5878
vn -0.8090 0.0000 -0.5878
vn -0.9511 0.0000 -0.3090
vn -1.0000 0.0000 0.0000
vn -1.0000 0.0000 0.0000
vn -1.0000 0.0000 0.0000
vn -0.9511 0.0000 -0.3090
vn -0.9511 0.0000 -0.3090
vn -1.0000 0.0000 0.0000
vn -0.9511 0.0000 0.3090
vn -0.9511 0.0000 0.3090
vn -0.9511 0.0000 0.3090
vn -1.0000 0.0000 0.0000
vn -1.0000 0.0000 0.0000
vn -0.9511 0.0000 0.3090
vn -0.8090 0.0000 0.5878
vn -0.8090 0.0000 0.5878
vn -0.8090 0.0000 0.5878
vn -0.9511 0.0000 0.3090
vn -0.9511 0.0000 0.3090
vn -0.8090 0.0000 0.5878
vn -0.5878 0.0000 0.8090
vn -0.5878 0.0000 0.8090
vn -0.5878 0.0000 0.8090
vn -0.8090 0.0000 0.5878
vn -0.8090 0.0000 0.5878
vn -0.5878 0.0000 0.8090
vn -0.3090 0.0000 0.9511
vn -0.3090 0.0000 0.9511
vn -0.3090 0.0000 0.9511
vn -0.5878 0.0000 0.8090
vn -0.5878 0.0000 0.8090
vn -0.3090 0.0000 0.9511
vn 0.0000 0.0000 1.0000
vn 0.0000 0.0000 1.0000
vn 0.0000 0.0000 1.0000
vn -0.3090 0.0000 0.9511
vn -0.3090 0.0000 0.9511
vn 0.0000 0.0000 1.0000
vn 0.3090 0.0000 0.9511
vn 0.3090 0.0000 0.9511
vn 0.3090 0.0000 0.9511
vn 0.0000 0.0000 1.0000
vn 0.0000 0.0000 1.0000
vn 0.3090 0.0000 0.9511
vn 0.5878 0.0000 0.8090
vn 0.5878 0.0000 0.8090
vn 0.5878 0.0000 0.8090
vn 0.3090 0.0000 0.9511
vn 0.3090 0.0000 0.9511
vn 0.5878 0.0000 0.8090
vn 0.8090 0.0000 0.5878
vn 0.8090 0.0000 0.5878
vn 0.8090 0.0000 0.5878
vn 0.5878 0.0000 0.8090
vn 0.5878 0.0000 0.8090
vn 0.8090 0.0000 0.5878
vn 0.9511 0.0000 0.3090
vn 0.9511 0.0000 0.3090
vn 0.9511 0.0000 0.3090
vn 0.8090 0.0000 0.5878
vn 0.8090 0.0000 0.5878
vn 0.9511 0.0000 0.3090
vn 1.0000 0.0000 -0.0000
vn 1.0000 0.0000 -0.0000
vn 1.0000 0.0000 -0.0000
vn 0.9511 0.0000 0.3090
vn 0.9511 0.0000 0.3090
vn 0.0000 1.0000 -0.0000
vn 0.0000 1.0000 -0.0000
vn 0.0000 1.0000 -0.0000
vn 0.0000 1.0000 -0.0000
vn 0.0000 1.0000 -0.0000
vn 0.0000 1.0000 -0.0000
vn 0.0000 1.0000 -0.0000
vn 0.0000 1.0000 -0.0000
vn 0.0000 1.0000 -0.0000
vn 0.0000 1.0000 -0.0000
vn 0.0000 1.0000 -0.0000
vn 0.0000 1.0000 -0.0000
vn 0.0000 1.0000 -0.0000
vn 0.0000 1.0000 -0.0000
vn 0.0000 1.0000 -0.0000
vn 0.0000 1.0000 -0.0000
vn 0.0000 1.0000 -0.0000
vn 0.0000 1.0000 -0.0000
vn 0.0000 1.0000 -0.0000
vn 0.0000 1.0000 -0.0000
vn 0.0000 1.0000 -0.0000
vn 0.0000 1.0000 -0.0000
vn 0.0000 1.0000 -0.0000
vn 0.0000 1.0000 -0.0000
vn 0.0000 1.0000 -0.0000
vn 0.0000 1.0000 -0.0000
vn 0.0000 1.0000 -0.0000
vn 0.0000 1.0000 -0.0000
vn 0.0000 1.0000 -0.0000
vn 0.0000 1.0000 -0.0000
vn 0.0000 1.0000 -0.0000
vn 0.0000 1.0000 -0.0000
vn 0.0000 1.0000 -0.0000
vn 0.0000 1.0000 -0.0000
vn 0.0000 1.0000 -0.0000
vn 0.0000 1.0000 -0.0000
vn 0.0000 1.0000 -0.0000
vn 0.0000 1.0000 -0.0000
vn 0.0000 1.0000 -0.0000
vn 0.0000 1.0000 -0.0000
vn 0.0000 1.0000 -0.0000
vn 0.0000 1.0000 -0.0000
vn 0.0000 1.0000 -0.0000
vn 0.0000 1.0000 -0.0000
vn 0.0000 1.0000 -0.0000
vn 0.0000 1.0000 -0.0000
vn 0.0000 1.0000 -0.0000
vn 0.0000 1.0000 -0.0000
vn 0.0000 1.0000 -0.0000
vn 0.0000 1.0000 -0.0000
vn 0.0000 1.0000 -0.0000
vn 0.0000 1.0000 -0.0000
vn 0.0000 1.0000 -0.0000
vn 0.0000 1.0000 -0.0000
vn 0.0000 1.0000 -0.0000
vn 0.0000 1.0000 -0.0000
vn 0.0000 1.0000 -0.0000
vn 0.0000 1.0000 -0.0000
vn 0.0000 1.0000 -0.0000
vn 0.0000 1.0000 -0.0000
vn 0.0000 1.0000 -0.0000
vn 0.0000 1.0000 -0.0000
vn 0.0000 1.0000 -0.0000
vn 0.0000 1.0000 -0.0000
vn 0.0000 1.0000 -0.0000
vn 0.0000 1.0000 -0.0000
vn 0.0000 1.0000 -0.0000
vn 0.0000 1.0000 -0.0000
vn 0.0000 1.0000 -0.0000
vn 0.0000 1.0000 -0.0000
vn 0.0000 1.0000 -0.0000
vn 0.0000 1.0000 -0.0000
# 372 vertex normals

vt 0.9500 0.0000 0.5000
vt 0.4068 0.0000 0.4773
vt 0.7500 0.0000 1.0000
vt 0.8000 0.0000 1.0000
vt 0.8500 0.0000 1.0000
vt 0.9000 0.0000 1.0000
vt 0.9500 0.0000 1.0000
vt 0.0000 0.0000 1.0000
vt 0.0500 0.0000 1.0000
vt 0.1000 0.0000 1.0000
vt 0.1500 0.0000 1.0000
vt 0.2000 0.0000 1.0000
vt 0.2500 0.0000 1.0000
vt 0.3000 0.0000 1.0000
vt 0.3500 0.0000 1.0000
vt 0.4000 0.0000 1.0000
vt 0.4500 0.0000 1.0000
vt 0.5000 0.0000 1.0000
vt 0.5500 0.0000 1.0000
vt 0.6000 0.0000 1.0000
vt 0.6500 0.0000 1.0000
vt 0.7000 0.0000 1.0000
vt 0.7500 0.5000 1.0000
vt 0.8000 0.5000 1.0000
vt 0.8500 0.5000 1.0000
vt 0.9000 0.5000 1.0000
vt 0.9500 0.5000 1.0000
vt 0.0000 0.5000 1.0000
vt 0.0500 0.5000 1.0000
vt 0.1000 0.5000 1.0000
vt 0.1500 0.5000 1.0000
vt 0.2000 0.5000 1.0000
vt 0.2500 0.5000 1.0000
vt 0.3000 0.5000 1.0000
vt 0.3500 0.5000 1.0000
vt 0.4000 0.5000 1.0000
vt 0.4500 0.5000 1.0000
vt 0.5000 0.5000 1.0000
vt 0.5500 0.5000 1.0000
vt 0.6000 0.5000 1.0000
vt 0.6500 0.5000 1.0000
vt 0.7000 0.5000 1.0000
vt 0.7500 1.0000 1.0000
vt 0.8000 1.0000 1.0000
vt 0.8500 1.0000 1.0000
vt 0.9000 1.0000 1.0000
vt 0.9500 1.0000 1.0000
vt 0.0000 1.0000 1.0000
vt 0.0500 1.0000 1.0000
vt 0.1000 1.0000 1.0000
vt 0.1500 1.0000 1.0000
vt 0.2000 1.0000 1.0000
vt 0.2500 1.0000 1.0000
vt 0.3000 1.0000 1.0000
vt 0.3500 1.0000 1.0000
vt 0.4000 1.0000 1.0000
vt 0.4500 1.0000 1.0000
vt 0.5000 1.0000 1.0000
vt 0.5500 1.0000 1.0000
vt 0.6000 1.0000 1.0000
vt 0.6500 1.0000 1.0000
vt 0.7000 1.0000 1.0000
vt 0.6500 1.0000 0.5000
vt 0.7000 1.0000 0.5000
vt 0.4071 1.0000 0.4762
vt -0.0500 0.0000 1.0000
vt -0.0500 0.0000 1.0000
vt -0.0500 0.5000 1.0000
vt -0.0500 0.5000 1.0000
vt -0.0500 1.0000 1.0000
vt -0.0500 1.0000 1.0000
# 71 texture coords

o Cylinder001
g Cylinder001
s 1
f 1/2/1 3/4/2 2/3/3 
f 1/2/4 4/5/5 3/4/6 
f 1/2/7 5/6/8 4/5/9 
f 1/1/10 6/7/11 5/6/12 
f 1/2/13 7/8/14 6/66/15 
f 1/2/16 8/9/17 7/8/18 
f 1/2/19 9/10/20 8/9/21 
f 1/2/22 10/11/23 9/10/24 
f 1/2/25 11/12/26 10/11/27 
f 1/2/28 12/13/29 11/12/30 
f 1/2/31 13/14/32 12/13/33 
f 1/2/34 14/15/35 13/14/36 
f 1/2/37 15/16/38 14/15/39 
f 1/2/40 16/17/41 15/16/42 
f 1/2/43 17/18/44 16/17/45 
f 1/2/46 18/19/47 17/18/48 
f 1/2/49 19/20/50 18/19/51 
f 1/2/52 20/21/53 19/20/54 
f 1/2/55 21/22/56 20/21/57 
f 1/2/58 2/3/59 21/22/60 
s 8
f 2/3/61 3/4/62 23/24/63 
f 23/24/64 22/23/65 2/3/66 
f 3/4/67 4/5/68 24/25/69 
f 24/25/70 23/24/71 3/4/72 
f 4/5/73 5/6/74 25/26/75 
f 25/26/76 24/25/77 4/5/78 
f 5/6/79 6/7/80 26/27/81 
f 26/27/82 25/26/83 5/6/84 
f 6/67/85 7/8/86 27/28/87 
f 27/28/88 26/68/89 6/67/90 
f 7/8/91 8/9/92 28/29/93 
f 28/29/94 27/28/95 7/8/96 
f 8/9/97 9/10/98 29/30/99 
f 29/30/100 28/29/101 8/9/102 
f 9/10/103 10/11/104 30/31/105 
f 30/31/106 29/30/107 9/10/108 
f 10/11/109 11/12/110 31/32/111 
f 31/32/112 30/31/113 10/11/114 
f 11/12/115 12/13/116 32/33/117 
f 32/33/118 31/32/119 11/12/120 
f 12/13/121 13/14/122 33/34/123 
f 33/34/124 32/33/125 12/13/126 
f 13/14/127 14/15/128 34/35/129 
f 34/35/130 33/34/131 13/14/132 
f 14/15/133 15/16/134 35/36/135 
f 35/36/136 34/35/137 14/15/138 
f 15/16/139 16/17/140 36/37/141 
f 36/37/142 35/36/143 15/16/144 
f 16/17/145 17/18/146 37/38/147 
f 37/38/148 36/37/149 16/17/150 
f 17/18/151 18/19/152 38/39/153 
f 38/39/154 37/38/155 17/18/156 
f 18/19/157 19/20/158 39/40/159 
f 39/40/160 38/39/161 18/19/162 
f 19/20/163 20/21/164 40/41/165 
f 40/41/166 39/40/167 19/20/168 
f 20/21/169 21/22/170 41/42/171 
f 41/42/172 40/41/173 20/21/174 
f 21/22/175 2/3/176 22/23/177 
f 22/23/178 41/42/179 21/22/180 
f 22/23/181 23/24/182 43/44/183 
f 43/44/184 42/43/185 22/23/186 
f 23/24/187 24/25/188 44/45/189 
f 44/45/190 43/44/191 23/24/192 
f 24/25/193 25/26/194 45/46/195 
f 45/46/196 44/45/197 24/25/198 
f 25/26/199 26/27/200 46/47/201 
f 46/47/202 45/46/203 25/26/204 
f 26/69/205 27/28/206 47/48/207 
f 47/48/208 46/70/209 26/69/210 
f 27/28/211 28/29/212 48/49/213 
f 48/49/214 47/48/215 27/28/216 
f 28/29/217 29/30/218 49/50/219 
f 49/50/220 48/49/221 28/29/222 
f 29/30/223 30/31/224 50/51/225 
f 50/51/226 49/50/227 29/30/228 
f 30/31/229 31/32/230 51/52/231 
f 51/52/232 50/51/233 30/31/234 
f 31/32/235 32/33/236 52/53/237 
f 52/53/238 51/52/239 31/32/240 
f 32/33/241 33/34/242 53/54/243 
f 53/54/244 52/53/245 32/33/246 
f 33/34/247 34/35/248 54/55/249 
f 54/55/250 53/54/251 33/34/252 
f 34/35/253 35/36/254 55/56/255 
f 55/56/256 54/55/257 34/35/258 
f 35/36/259 36/37/260 56/57/261 
f 56/57/262 55/56/263 35/36/264 
f 36/37/265 37/38/266 57/58/267 
f 57/58/268 56/57/269 36/37/270 
f 37/38/271 38/39/272 58/59/273 
f 58/59/274 57/58/275 37/38/276 
f 38/39/277 39/40/278 59/60/279 
f 59/60/280 58/59/281 38/39/282 
f 39/40/283 40/41/284 60/61/285 
f 60/61/286 59/60/287 39/40/288 
f 40/41/289 41/42/290 61/62/291 
f 61/62/292 60/61/293 40/41/294 
f 41/42/295 22/23/296 42/43/297 
f 42/43/298 61/62/299 41/42/300 
s 1
f 42/43/301 43/44/302 64/65/303 
f 43/44/304 44/45/305 64/65/306 
f 44/45/307 45/46/308 64/65/309 
f 45/46/310 46/47/311 64/65/312 
f 46/71/313 47/48/314 64/65/315 
f 47/48/316 48/49/317 64/65/318 
f 48/49/319 49/50/320 64/65/321 
f 49/50/322 50/51/323 64/65/324 
f 50/51/325 51/52/326 64/65/327 
f 51/52/328 52/53/329 64/65/330 
f 52/53/331 53/54/332 64/65/333 
f 53/54/334 54/55/335 64/65/336 
f 54/55/337 55/56/338 64/65/339 
f 55/56/340 56/57/341 64/65/342 
f 56/57/343 57/58/344 64/65/345 
f 57/58/346 58/59/347 64/65/348 
f 58/59/349 59/60/350 64/65/351 
f 59/60/352 60/61/353 62/63/354 
f 62/63/355 64/65/356 59/60/357 
f 60/61/358 61/62/359 63/64/360 
f 63/64/361 62/63/362 60/61/363 
f 61/62/364 42/43/365 64/65/366 
f 64/65/367 63/64/368 61/62/369 
f 64/65/370 62/63/371 63/64/372 
# 124 faces

